<svg width="20" height="21" viewBox="0 0 20 21" fill="none" xmlns="http://www.w3.org/2000/svg">
<path fill-rule="evenodd" clip-rule="evenodd" d="M17.6562 0.5L16.3125 0.5C15.7602 0.5 15.3125 0.947715 15.3125 1.5L15.3125 1.69141L15.3125 1.88281C15.3125 2.4351 14.8648 2.88281 14.3125 2.88281L13.343 2.88281L11.5298 2.88281C11.4327 2.88281 11.3425 2.83251 11.2914 2.74988V2.74988C11.1654 2.54598 10.9154 2.33988 10.6298 2.20461C10.3963 2.09398 10.335 2.08203 10 2.08203C9.66504 2.08203 9.60371 2.09398 9.3702 2.20461C9.08465 2.33988 8.83461 2.54598 8.70859 2.74988V2.74988C8.65753 2.83251 8.56732 2.88281 8.47018 2.88281L6.65695 2.88281L5.6875 2.88281C5.13522 2.88281 4.6875 2.4351 4.6875 1.88281L4.6875 1.69141L4.6875 1.5C4.6875 0.947715 4.23978 0.499999 3.6875 0.499999L2.34375 0.499999L1 0.499999C0.447715 0.499999 -1.95703e-08 0.947714 -4.37114e-08 1.5L-1.36598e-07 3.625L-2.29485e-07 5.75C-2.53626e-07 6.30228 0.447715 6.75 1 6.75L2.34375 6.75L3.6875 6.75C4.23978 6.75 4.6875 6.30228 4.6875 5.75L4.6875 5.59766L4.6875 5.44531C4.6875 4.89303 5.13522 4.44531 5.6875 4.44531L6.66992 4.44531L8.39711 4.44535C8.55915 4.44535 8.71316 4.51596 8.81891 4.63875V4.63875C8.91051 4.74512 9.03793 4.86316 9.10211 4.90105V4.90105C9.17438 4.94375 9.21868 5.02149 9.21857 5.10543L9.21656 6.63148L9.21475 7.98193C9.2145 8.17194 9.10501 8.34487 8.93336 8.42637V8.42637C8.54383 8.61125 8.11301 9.04269 7.91586 9.44531C7.45687 10.3828 7.62492 11.4136 8.35582 12.1439C8.57328 12.3612 8.7273 12.4758 8.93336 12.5736V12.5736C9.10496 12.6551 9.21432 12.8281 9.21431 13.0181L9.21418 14.3672L9.21401 15.8263C9.21399 15.9526 9.1535 16.0713 9.05129 16.1455V16.1455C8.96184 16.2105 8.83547 16.3368 8.77047 16.4263V16.4263C8.69625 16.5285 8.57761 16.5891 8.45129 16.5892L6.66992 16.5914L5.6887 16.5925C5.13595 16.5932 4.6875 16.1453 4.6875 15.5925L4.6875 15.4219L4.6875 15.25C4.6875 14.6977 4.23978 14.25 3.6875 14.25L2.34375 14.25L0.999999 14.25C0.447715 14.25 -6.20602e-07 14.6977 -6.44743e-07 15.25L-7.3763e-07 17.375L-8.30516e-07 19.5C-8.54658e-07 20.0523 0.447714 20.5 0.999999 20.5L2.34375 20.5L3.6875 20.5C4.23978 20.5 4.6875 20.0523 4.6875 19.5L4.6875 19.3281L4.6875 19.1562C4.6875 18.604 5.13521 18.1562 5.6875 18.1562L6.67969 18.1562C7.8207 18.1562 8.67187 18.1711 8.67187 18.1911C8.67187 18.2102 8.75234 18.3154 8.8507 18.4248C8.97273 18.5605 9.12414 18.6705 9.32723 18.7709C9.60891 18.9101 9.64496 18.918 10 18.918C10.355 18.918 10.3911 18.9101 10.6728 18.7709C10.8759 18.6705 11.0273 18.5605 11.1493 18.4248C11.2477 18.3154 11.3281 18.2102 11.3281 18.1911C11.3281 18.1711 12.1793 18.1562 13.3203 18.1562L14.3125 18.1562C14.8648 18.1562 15.3125 18.604 15.3125 19.1562L15.3125 19.3281L15.3125 19.5C15.3125 20.0523 15.7602 20.5 16.3125 20.5L17.6562 20.5L19 20.5C19.5523 20.5 20 20.0523 20 19.5L20 17.375L20 15.25C20 14.6977 19.5523 14.25 19 14.25L17.6562 14.25L16.3125 14.25C15.7602 14.25 15.3125 14.6977 15.3125 15.25L15.3125 15.4219L15.3125 15.5925C15.3125 16.1453 14.8641 16.5932 14.3113 16.5925L13.3301 16.5914L11.5487 16.5892C11.4224 16.5891 11.3038 16.5285 11.2295 16.4263V16.4263C11.1645 16.3368 11.0382 16.2105 10.9487 16.1455V16.1455C10.8465 16.0713 10.786 15.9526 10.786 15.8263L10.7858 14.3672L10.7857 13.0181C10.7857 12.8281 10.895 12.6551 11.0666 12.5736V12.5736C11.4562 12.3887 11.887 11.9573 12.0841 11.5547C12.4221 10.8645 12.4221 10.1355 12.0841 9.44531C11.887 9.04269 11.4562 8.61125 11.0666 8.42637V8.42637C10.895 8.34487 10.7855 8.17194 10.7852 7.98193L10.7834 6.63148L10.7814 5.10543C10.7813 5.02149 10.8256 4.94375 10.8979 4.90105V4.90105C10.9621 4.86316 11.0895 4.74512 11.1811 4.63875V4.63875C11.2868 4.51596 11.4408 4.44535 11.6029 4.44535L13.3301 4.44531L14.3125 4.44531C14.8648 4.44531 15.3125 4.89303 15.3125 5.44531L15.3125 5.59766L15.3125 5.75C15.3125 6.30228 15.7602 6.75 16.3125 6.75L17.6562 6.75L19 6.75C19.5523 6.75 20 6.30228 20 5.75L20 3.625L20 1.5C20 0.947715 19.5523 0.5 19 0.5L17.6562 0.5ZM17.6562 5.1875V5.1875C17.2248 5.1875 16.875 4.83772 16.875 4.40625L16.875 3.625L16.875 2.84375C16.875 2.41228 17.2248 2.0625 17.6562 2.0625V2.0625V2.0625C18.0877 2.0625 18.4375 2.41228 18.4375 2.84375L18.4375 3.625L18.4375 4.40625C18.4375 4.83772 18.0877 5.1875 17.6562 5.1875V5.1875ZM17.6562 18.9375V18.9375C17.2248 18.9375 16.875 18.5877 16.875 18.1562L16.875 17.375L16.875 16.5937C16.875 16.1623 17.2248 15.8125 17.6562 15.8125V15.8125V15.8125C18.0877 15.8125 18.4375 16.1623 18.4375 16.5937L18.4375 17.375L18.4375 18.1562C18.4375 18.5877 18.0877 18.9375 17.6562 18.9375V18.9375ZM10.6495 10.9291C10.4954 11.162 10.3007 11.2617 10 11.2617C9.69539 11.2617 9.50445 11.1618 9.34309 10.918C9.19887 10.7 9.19324 10.3186 9.33098 10.097C9.5148 9.80129 9.8798 9.66234 10.2271 9.75586C10.4267 9.80961 10.6825 10.0487 10.7394 10.2348C10.8021 10.4396 10.7604 10.7616 10.6495 10.9291ZM2.34375 5.1875V5.1875C1.91228 5.1875 1.5625 4.83772 1.5625 4.40625L1.5625 3.625L1.5625 2.84375C1.5625 2.41228 1.91228 2.0625 2.34375 2.0625V2.0625V2.0625C2.77522 2.0625 3.125 2.41228 3.125 2.84375L3.125 3.625L3.125 4.40625C3.125 4.83772 2.77522 5.1875 2.34375 5.1875V5.1875ZM2.34375 18.9375V18.9375C1.91228 18.9375 1.5625 18.5877 1.5625 18.1562L1.5625 17.375L1.5625 16.5937C1.5625 16.1623 1.91228 15.8125 2.34375 15.8125V15.8125V15.8125C2.77522 15.8125 3.125 16.1623 3.125 16.5937L3.125 17.375L3.125 18.1562C3.125 18.5877 2.77522 18.9375 2.34375 18.9375V18.9375Z" fill="#40AE2A"/>
</svg>
