<svg width="27" height="21" viewBox="0 0 27 21" fill="none" xmlns="http://www.w3.org/2000/svg">
<path fill-rule="evenodd" clip-rule="evenodd" d="M5.83612 0.867681C5.44962 1.25439 5.4463 1.28204 5.72468 1.80222C5.91824 2.16376 6.17979 2.20431 8.3235 2.20431C10.5685 2.20431 10.7071 2.22842 10.7071 2.62012C10.7071 3.00952 10.5685 3.03593 8.52413 3.03593C6.61826 3.03593 6.28831 3.08874 5.92531 3.45174C5.69661 3.68044 5.5095 4.05467 5.5095 4.28336C5.5095 4.64678 5.37083 4.69917 4.4076 4.69917C3.80155 4.69917 3.19343 4.81144 3.05621 4.94866C2.8903 5.11457 2.80673 6.02062 2.80673 7.65143V10.1047H2.18945H1.57218L1.51376 7.58012C1.46428 5.4416 1.39962 5.02039 1.0915 4.82641C0.826425 4.65946 0.628914 4.65967 0.363835 4.82683C0.0309779 5.03681 0 5.56739 0 11.0403C0 16.5132 0.0309779 17.0438 0.363835 17.2538C0.628914 17.4209 0.826425 17.4211 1.0915 17.2542C1.39962 17.0602 1.46428 16.639 1.51376 14.5005L1.57218 11.9759H2.18945H2.80673V14.4292C2.80673 16.06 2.8903 16.966 3.05621 17.1319C3.21256 17.2883 3.99075 17.3814 5.14088 17.3814H6.97606L8.8495 18.9407L10.7229 20.5H15.4553C18.8587 20.5 20.2577 20.4299 20.4371 20.2505C20.5822 20.1054 20.6866 19.4097 20.6866 18.5873C20.6866 17.4692 20.7519 17.1735 20.9985 17.1735C21.2174 17.1735 21.3103 17.3945 21.3103 17.9149C21.3103 19.2798 21.5438 19.4605 23.3062 19.4605H24.8715L25.6899 17.6895L26.508 15.9186V12.8056C26.508 9.76292 26.493 9.65855 25.847 8.18346C25.4836 7.3533 25.0979 6.55743 24.99 6.41439C24.8643 6.24786 24.2453 6.15451 23.2673 6.15451C21.5748 6.15451 21.3103 6.34932 21.3103 7.59613C21.3103 8.02421 21.2078 8.23357 20.9985 8.23357C20.7843 8.23357 20.6866 8.0188 20.6866 7.54748C20.6866 6.5697 20.3704 6.36242 18.8778 6.36242H17.568V5.02288C17.568 3.18895 17.331 3.03593 14.4919 3.03593C12.5544 3.03593 12.3469 2.99975 12.4097 2.67209C12.47 2.35649 12.7806 2.30036 14.7513 2.2488C16.001 2.21616 17.146 2.08767 17.2959 1.96355C17.6591 1.66209 17.6393 1.26582 17.2414 0.867681C16.751 0.37744 6.32657 0.37744 5.83612 0.867681ZM15.7353 6.2726C15.7919 7.16098 15.9276 7.70487 16.1235 7.82878C16.289 7.93356 17.0094 8.02067 17.724 8.02255L19.0234 8.02566V8.85001C19.0234 9.89453 19.3847 10.1047 21.181 10.1047C22.3436 10.1047 22.5798 10.0396 22.8578 9.64255C23.0357 9.38848 23.1815 8.87392 23.1815 8.49906C23.1815 7.43729 23.7037 7.66266 24.3098 8.98639C24.7965 10.0496 24.8439 10.3914 24.8364 12.7807C24.8291 15.0708 24.7651 15.5525 24.3356 16.5498C23.7516 17.906 23.1815 18.1931 23.1815 17.1311C23.1815 16.7479 23.0357 16.2265 22.8578 15.9724C22.5736 15.5664 22.3492 15.5103 21.0122 15.5103C20.024 15.5103 19.4121 15.6042 19.2679 15.778C19.1456 15.9255 19.0171 16.6504 18.9824 17.3893L18.9194 18.7328L15.1754 18.7894L11.4315 18.8457L9.78695 17.4785C8.88256 16.7265 7.97734 16.0228 7.77525 15.9146C7.57317 15.8065 6.74508 15.7182 5.93508 15.7182H4.46207L4.518 11.0923L4.57392 6.46637L5.82136 6.36242C7.0164 6.26283 7.07711 6.23019 7.26776 5.58277L7.46672 4.90708H11.5575H15.6484L15.7353 6.2726Z" fill="#40AE2A"/>
</svg>
