<svg width="18" height="18" viewBox="0 0 18 18" fill="none" xmlns="http://www.w3.org/2000/svg">
<path d="M9.8573 17.8695H1.9573C1.74813 17.8762 1.53974 17.8408 1.34452 17.7654C1.14931 17.6899 0.971264 17.576 0.820964 17.4303C0.670664 17.2847 0.551182 17.1103 0.46962 16.9176C0.388059 16.7249 0.346084 16.5177 0.346192 16.3084V1.68064C0.362113 1.25424 0.546535 0.851566 0.858994 0.56098C1.17145 0.270394 1.58643 0.115626 2.01286 0.130637H9.91286C10.1174 0.126055 10.3207 0.163057 10.5106 0.239402C10.7004 0.315746 10.8727 0.429841 11.0171 0.574772C11.1615 0.719703 11.275 0.89245 11.3507 1.08254C11.4263 1.27263 11.4626 1.47611 11.4573 1.68064V16.3084C11.4566 16.5165 11.4145 16.7224 11.3333 16.914C11.2522 17.1057 11.1337 17.2792 10.9847 17.4246C10.8358 17.5699 10.6594 17.6841 10.4658 17.7605C10.2722 17.8369 10.0654 17.874 9.8573 17.8695ZM1.9573 1.20286C1.89291 1.20063 1.82872 1.21131 1.76851 1.23425C1.70829 1.25719 1.65328 1.29194 1.60669 1.33646C1.56011 1.38097 1.52289 1.43435 1.49724 1.49346C1.47158 1.55257 1.458 1.61621 1.4573 1.68064V16.3084C1.4573 16.4366 1.50823 16.5595 1.59887 16.6502C1.68951 16.7408 1.81245 16.7917 1.94064 16.7917H9.8573C9.99028 16.7935 10.1189 16.7445 10.217 16.6547C10.3151 16.5649 10.3752 16.441 10.3851 16.3084V1.68064C10.3739 1.54901 10.3132 1.42654 10.2152 1.33788C10.1173 1.24922 9.98939 1.20098 9.8573 1.20286H1.9573Z" fill="#40AE2A"/>
<path d="M15.0848 17.8695C14.8281 17.8717 14.5734 17.823 14.3356 17.7263C14.0978 17.6296 13.8814 17.4867 13.6991 17.3059C13.5168 17.1251 13.3721 16.91 13.2733 16.673C13.1745 16.436 13.1237 16.1818 13.1237 15.9251V11.7584C13.1237 11.4637 13.0066 11.1811 12.7983 10.9727C12.5899 10.7643 12.3073 10.6473 12.0126 10.6473H11.2182C11.0708 10.6473 10.9295 10.5888 10.8253 10.4846C10.7211 10.3804 10.6626 10.2391 10.6626 10.0917C10.6626 9.94439 10.7211 9.80308 10.8253 9.69889C10.9295 9.59471 11.0708 9.53617 11.2182 9.53617H12.0126C12.602 9.53617 13.1672 9.7703 13.5839 10.187C14.0007 10.6038 14.2348 11.169 14.2348 11.7584V15.9251C14.2348 16.1461 14.3226 16.358 14.4789 16.5143C14.6352 16.6706 14.8471 16.7584 15.0682 16.7584C15.2892 16.7584 15.5011 16.6706 15.6574 16.5143C15.8137 16.358 15.9015 16.1461 15.9015 15.9251V8.59173L14.1626 4.70284C14.0587 4.48613 13.8955 4.30328 13.692 4.17546C13.4885 4.04764 13.2529 3.98009 13.0126 3.98062H12.607C12.4597 3.98062 12.3184 3.92209 12.2142 3.8179C12.11 3.71371 12.0515 3.57241 12.0515 3.42506C12.0515 3.27772 12.11 3.13641 12.2142 3.03223C12.3184 2.92804 12.4597 2.86951 12.607 2.86951H13.0126C13.4745 2.86927 13.9266 3.00296 14.3141 3.2544C14.7016 3.50584 15.0079 3.86423 15.1959 4.28617L16.9793 8.26395C17.0119 8.33548 17.0289 8.41312 17.0293 8.49173V15.9251C17.0293 16.4408 16.8244 16.9353 16.4597 17.3C16.0951 17.6646 15.6005 17.8695 15.0848 17.8695Z" fill="#40AE2A"/>
<path d="M8.67996 3.98062H3.1244C2.97706 3.98062 2.83575 3.92209 2.73157 3.8179C2.62738 3.71371 2.56885 3.5724 2.56885 3.42506C2.56885 3.27772 2.62738 3.13641 2.73157 3.03223C2.83575 2.92804 2.97706 2.86951 3.1244 2.86951H8.67996C8.8273 2.86951 8.96861 2.92804 9.0728 3.03223C9.17698 3.13641 9.23551 3.27772 9.23551 3.42506C9.23551 3.5724 9.17698 3.71371 9.0728 3.8179C8.96861 3.92209 8.8273 3.98062 8.67996 3.98062Z" fill="#40AE2A"/>
<path d="M8.67996 6.20285H3.1244C2.97706 6.20285 2.83575 6.14432 2.73157 6.04013C2.62738 5.93594 2.56885 5.79463 2.56885 5.64729C2.56885 5.49995 2.62738 5.35864 2.73157 5.25445C2.83575 5.15027 2.97706 5.09174 3.1244 5.09174H8.67996C8.8273 5.09174 8.96861 5.15027 9.0728 5.25445C9.17698 5.35864 9.23551 5.49995 9.23551 5.64729C9.23551 5.79463 9.17698 5.93594 9.0728 6.04013C8.96861 6.14432 8.8273 6.20285 8.67996 6.20285Z" fill="#40AE2A"/>
<path d="M12.5697 5.69173C12.4224 5.69173 12.2811 5.6332 12.1769 5.52901C12.0727 5.42482 12.0142 5.28352 12.0142 5.13617V1.80284C12.0142 1.6555 12.0727 1.51419 12.1769 1.41C12.2811 1.30582 12.4224 1.24728 12.5697 1.24728C12.7171 1.24728 12.8584 1.30582 12.9626 1.41C13.0667 1.51419 13.1253 1.6555 13.1253 1.80284V5.13617C13.1253 5.28352 13.0667 5.42482 12.9626 5.52901C12.8584 5.6332 12.7171 5.69173 12.5697 5.69173Z" fill="#40AE2A"/>
</svg>
