<svg width="21" height="21" viewBox="0 0 21 21" fill="none" xmlns="http://www.w3.org/2000/svg">
<path fill-rule="evenodd" clip-rule="evenodd" d="M7.86995 0.677642C3.09962 1.76436 -0.257639 6.21275 0.0155367 11.0849C0.157317 13.6138 1.12932 15.7603 2.96319 17.5941C4.15188 18.7829 5.28581 19.4972 6.91636 20.0844C7.93148 20.45 8.30757 20.5 10.0376 20.5C11.7676 20.5 12.1437 20.45 13.1588 20.0844C14.7893 19.4972 15.9233 18.7829 17.112 17.5941C18.3008 16.4054 19.0151 15.2714 19.6023 13.6409C19.9679 12.6258 20.0179 12.2497 20.0179 10.5197C20.0179 8.78966 19.9679 8.41357 19.6023 7.39845C19.0151 5.76789 18.3008 4.63396 17.112 3.44527C15.2086 1.5417 13.0823 0.607617 10.4314 0.510527C9.42891 0.473705 8.49892 0.534445 7.86995 0.677642ZM12.3127 1.94847C13.769 2.32787 15.0498 3.0909 16.258 4.29926C18.0676 6.10889 18.8497 7.98587 18.8497 10.5197C18.8497 13.0535 18.0676 14.9304 16.258 16.7401C14.4483 18.5497 12.5714 19.3318 10.0376 19.3318C7.50378 19.3318 5.6268 18.5497 3.81717 16.7401C2.00754 14.9304 1.22547 13.0535 1.22547 10.5197C1.22547 7.98587 2.00754 6.10889 3.81717 4.29926C4.99957 3.11671 6.29888 2.33164 7.69481 1.95634C8.82607 1.65201 11.1595 1.64808 12.3127 1.94847ZM8.93606 2.90789C5.38604 3.59114 2.79135 6.3476 2.39811 9.85372C2.18505 11.7543 2.99938 14.1548 4.34527 15.5937C5.08391 16.3833 5.52578 16.5062 5.83766 16.0085C5.96308 15.8085 5.83499 15.5555 5.24001 14.8283C4.43528 13.845 3.85588 12.7002 3.68184 11.7502C3.58239 11.208 3.60269 11.1678 3.99766 11.1208C4.53819 11.0563 4.83056 10.6252 4.59201 10.2443C4.49712 10.0929 4.22977 9.94625 3.99766 9.91855C3.60348 9.87166 3.58239 9.83011 3.67744 9.28911C3.80411 8.56872 4.25416 7.50875 4.6987 6.88451C5.01499 6.44044 5.05417 6.42675 5.3209 6.66814C5.47747 6.80977 5.77079 6.90229 5.97268 6.87365C6.43075 6.80882 6.55097 6.20614 6.18606 5.80298C5.94467 5.53626 5.95836 5.49708 6.40242 5.18079C7.02667 4.73625 8.08664 4.2862 8.80703 4.15953C9.34803 4.06448 9.38957 4.08557 9.43646 4.47975C9.543 5.37324 10.5322 5.37324 10.6387 4.47975C10.6856 4.08557 10.7271 4.06448 11.2681 4.15953C11.9885 4.2862 13.0485 4.73625 13.6727 5.18079C14.1168 5.49708 14.1305 5.53626 13.8891 5.80298C13.5242 6.20614 13.6444 6.80882 14.1025 6.87365C14.3044 6.90229 14.5977 6.80977 14.7543 6.66814C15.021 6.42675 15.0602 6.44044 15.3765 6.88451C15.821 7.50875 16.271 8.56872 16.3977 9.28911C16.4928 9.83011 16.4717 9.87166 16.0775 9.91855C15.8454 9.94625 15.578 10.0929 15.4831 10.2443C15.2446 10.6252 15.537 11.0563 16.0775 11.1208C16.4725 11.1678 16.4928 11.208 16.3933 11.7502C16.2193 12.7002 15.6399 13.845 14.8351 14.8283C14.2402 15.5555 14.1121 15.8085 14.2375 16.0085C14.5494 16.5062 14.9912 16.3833 15.7299 15.5937C19.4196 11.649 17.6489 5.06135 12.4146 3.25975C11.5286 2.95463 9.66983 2.76674 8.93606 2.90789ZM9.59697 6.61716C9.49075 6.72338 9.40814 7.23259 9.40814 7.78161C9.40814 8.68674 9.36833 8.79705 8.85738 9.308C8.40277 9.76261 8.30663 9.9741 8.30663 10.5197C8.30663 11.0614 8.40309 11.277 8.84165 11.7156C9.28021 12.1542 9.49579 12.2506 10.0376 12.2506C10.5794 12.2506 10.7949 12.1542 11.2335 11.7156C11.6721 11.277 11.7685 11.0614 11.7685 10.5197C11.7685 9.9741 11.6724 9.76261 11.2178 9.308C10.7068 8.79705 10.667 8.68674 10.667 7.78161C10.667 6.79088 10.4983 6.42833 10.0376 6.42833C9.8991 6.42833 9.70083 6.5133 9.59697 6.61716ZM10.4198 10.1374C10.5558 10.2736 10.667 10.4455 10.667 10.5197C10.667 10.5938 10.5558 10.7658 10.4198 10.9019C10.2837 11.0378 10.1117 11.1491 10.0376 11.1491C9.86275 11.1491 9.40814 10.6945 9.40814 10.5197C9.40814 10.4455 9.51939 10.2736 9.65535 10.1374C9.79147 10.0015 9.96346 9.89023 10.0376 9.89023C10.1117 9.89023 10.2837 10.0015 10.4198 10.1374ZM6.10989 12.4791C5.69321 12.9811 6.30801 13.7702 6.7985 13.3631C7.09449 13.1173 7.12171 12.7022 6.85892 12.4394C6.60668 12.1872 6.34043 12.2012 6.10989 12.4791ZM13.1911 12.4791C12.7744 12.9811 13.3892 13.7702 13.8797 13.3631C14.1756 13.1173 14.2029 12.7022 13.9401 12.4394C13.6878 12.1872 13.4216 12.2012 13.1911 12.4791ZM7.23659 13.6983C6.98151 13.9534 6.98151 16.5275 7.23659 16.7826C7.50158 17.0475 12.5736 17.0475 12.8386 16.7826C13.0936 16.5275 13.0936 13.9534 12.8386 13.6983C12.5736 13.4333 7.50158 13.4333 7.23659 13.6983ZM11.7685 15.2404V15.8699H10.0376H8.30663V15.2404V14.611H10.0376H11.7685V15.2404Z" fill="#40AE2A"/>
</svg>
