<svg width="21" height="16" viewBox="0 0 21 16" fill="none" xmlns="http://www.w3.org/2000/svg">
<path d="M19.0962 15.5C19.0962 15.5 20.3462 15.5 20.3462 14.25C20.3462 13 19.0962 9.25 14.0962 9.25C9.09619 9.25 7.84619 13 7.84619 14.25C7.84619 15.5 9.09619 15.5 9.09619 15.5H19.0962ZM9.12369 14.25C9.11446 14.2487 9.10528 14.2471 9.09619 14.245C9.09744 13.915 9.30494 12.9575 10.0462 12.095C10.7362 11.2863 11.9487 10.5 14.0962 10.5C16.2424 10.5 17.4549 11.2875 18.1462 12.095C18.8874 12.9575 19.0937 13.9163 19.0962 14.245L19.0862 14.2475C19.0804 14.2485 19.0745 14.2493 19.0687 14.25H9.12369ZM14.0962 6.75C14.7592 6.75 15.3951 6.48661 15.864 6.01777C16.3328 5.54893 16.5962 4.91304 16.5962 4.25C16.5962 3.58696 16.3328 2.95107 15.864 2.48223C15.3951 2.01339 14.7592 1.75 14.0962 1.75C13.4332 1.75 12.7973 2.01339 12.3284 2.48223C11.8596 2.95107 11.5962 3.58696 11.5962 4.25C11.5962 4.91304 11.8596 5.54893 12.3284 6.01777C12.7973 6.48661 13.4332 6.75 14.0962 6.75ZM17.8462 4.25C17.8462 4.74246 17.7492 5.23009 17.5607 5.68506C17.3723 6.14003 17.0961 6.55343 16.7478 6.90165C16.3996 7.24987 15.9862 7.52609 15.5313 7.71455C15.0763 7.903 14.5886 8 14.0962 8C13.6037 8 13.1161 7.903 12.6611 7.71455C12.2062 7.52609 11.7928 7.24987 11.4445 6.90165C11.0963 6.55343 10.8201 6.14003 10.6316 5.68506C10.4432 5.23009 10.3462 4.74246 10.3462 4.25C10.3462 3.25544 10.7413 2.30161 11.4445 1.59835C12.1478 0.895088 13.1016 0.5 14.0962 0.5C15.0908 0.5 16.0446 0.895088 16.7478 1.59835C17.4511 2.30161 17.8462 3.25544 17.8462 4.25ZM9.01619 9.6C8.51617 9.44255 8.00074 9.33904 7.47869 9.29125C7.18536 9.26336 6.89085 9.24959 6.59619 9.25C1.59619 9.25 0.346191 13 0.346191 14.25C0.346191 15.0837 0.762441 15.5 1.59619 15.5H6.86619C6.68089 15.1098 6.58847 14.6819 6.59619 14.25C6.59619 12.9875 7.06744 11.6975 7.95869 10.62C8.26244 10.2525 8.61619 9.90875 9.01619 9.6ZM6.49619 10.5C5.75638 11.6116 5.35674 12.9148 5.34619 14.25H1.59619C1.59619 13.925 1.80119 12.9625 2.54619 12.095C3.22744 11.3 4.41119 10.525 6.49619 10.5013V10.5ZM2.22119 4.875C2.22119 3.88044 2.61628 2.92661 3.31954 2.22335C4.0228 1.52009 4.97663 1.125 5.97119 1.125C6.96575 1.125 7.91958 1.52009 8.62284 2.22335C9.3261 2.92661 9.72119 3.88044 9.72119 4.875C9.72119 5.86956 9.3261 6.82339 8.62284 7.52665C7.91958 8.22991 6.96575 8.625 5.97119 8.625C4.97663 8.625 4.0228 8.22991 3.31954 7.52665C2.61628 6.82339 2.22119 5.86956 2.22119 4.875ZM5.97119 2.375C5.30815 2.375 4.67227 2.63839 4.20342 3.10723C3.73458 3.57607 3.47119 4.21196 3.47119 4.875C3.47119 5.53804 3.73458 6.17393 4.20342 6.64277C4.67227 7.11161 5.30815 7.375 5.97119 7.375C6.63423 7.375 7.27012 7.11161 7.73896 6.64277C8.2078 6.17393 8.47119 5.53804 8.47119 4.875C8.47119 4.21196 8.2078 3.57607 7.73896 3.10723C7.27012 2.63839 6.63423 2.375 5.97119 2.375Z" fill="#40AE2A"/>
</svg>
