<svg width="21" height="20" viewBox="0 0 21 20" fill="none" xmlns="http://www.w3.org/2000/svg">
<path fill-rule="evenodd" clip-rule="evenodd" d="M1.98533 0.290841C1.64117 0.448838 1.23914 0.713835 1.09178 0.879653C0.697415 1.32392 0.342313 2.26049 0.346223 2.84648C0.350447 3.47503 0.807231 4.50717 1.25932 4.90936C1.58783 5.20173 1.59424 5.29888 1.59424 10.0083C1.59424 14.7177 1.58783 14.8148 1.25932 15.1072C0.796437 15.5189 0.350291 16.5466 0.346223 17.2101C0.344346 17.5146 0.501248 18.0771 0.694756 18.4603C1.73175 20.5132 4.58539 20.5132 5.62239 18.4603C5.81605 18.0771 5.9728 17.5146 5.97092 17.2101C5.96685 16.5466 5.52071 15.5189 5.05782 15.1072C4.75638 14.8389 4.7229 14.6478 4.7229 13.1909V11.5726H6.33619C7.89958 11.5726 7.96246 11.5862 8.36982 12.0114C8.74995 12.4083 8.79015 12.5627 8.79015 13.6297C8.79015 14.6381 8.7415 14.8524 8.45523 15.1072C7.99234 15.5189 7.5462 16.5466 7.54213 17.2101C7.54025 17.5146 7.697 18.0771 7.89066 18.4603C8.92766 20.5132 11.7813 20.5132 12.8183 18.4603C13.0118 18.0771 13.1687 17.5146 13.1668 17.2101C13.1628 16.5466 12.7166 15.5189 12.2537 15.1072C11.9675 14.8524 11.9188 14.6381 11.9188 13.6297C11.9188 12.5627 11.959 12.4083 12.3391 12.0114C12.7456 11.5872 12.812 11.5726 14.3449 11.5726C16.412 11.5726 17.1726 11.3172 18.0665 10.323C18.9212 9.37254 19.1147 8.716 19.1147 6.76841C19.1147 5.37006 19.1496 5.17624 19.4496 4.90936C19.9125 4.49763 20.3587 3.47002 20.3627 2.80644C20.3646 2.50202 20.2077 1.93949 20.0142 1.55623C18.9772 -0.496642 16.1236 -0.496642 15.0866 1.55623C14.8931 1.93949 14.7362 2.50202 14.738 2.80644C14.7421 3.47002 15.1883 4.49763 15.6511 4.90936C15.9473 5.17279 15.9861 5.37303 15.9861 6.63794C15.9861 7.54197 15.9169 8.13766 15.7983 8.25624C15.6798 8.37482 15.0853 8.44396 14.185 8.44396C12.8274 8.44396 12.7395 8.423 12.3391 8.00517C11.959 7.6083 11.9188 7.4539 11.9188 6.38687C11.9188 5.3785 11.9675 5.16419 12.2537 4.90936C12.7166 4.49763 13.1628 3.47002 13.1668 2.80644C13.1687 2.50202 13.0118 1.93949 12.8183 1.55623C11.7813 -0.496642 8.92766 -0.496642 7.89066 1.55623C7.69715 1.93949 7.54025 2.50202 7.54213 2.80644C7.5462 3.47002 7.99234 4.49763 8.45523 4.90936C8.74244 5.16482 8.79015 5.37803 8.79015 6.40533C8.79015 7.51365 8.7573 7.63473 8.35136 8.02362C7.93384 8.42362 7.83544 8.44396 6.31773 8.44396H4.7229V6.82566C4.7229 5.3688 4.75638 5.17764 5.05782 4.90936C5.52118 4.49716 5.96748 3.4683 5.96748 2.81238C5.96748 2.17492 5.52462 1.13042 5.0913 0.745591C4.64703 0.351224 3.71047 -0.00387882 3.12447 3.2003e-05C2.84211 0.0019092 2.32948 0.132687 1.98533 0.290841ZM3.91805 1.47097C4.97648 2.01833 4.96834 3.38195 3.90163 4.21855L3.47144 4.55582V6.93798C3.47144 8.58209 3.52963 9.37818 3.65916 9.5077C3.78837 9.63692 4.57444 9.69542 6.18226 9.69542H8.51764L9.27556 8.95237L10.0336 8.20931L10.0375 6.40001L10.0416 4.59071L9.50223 4.11312C8.91451 3.59282 8.70083 3.03279 8.85538 2.41739C9.13993 1.28372 10.6173 0.885129 11.4495 1.71735C12.135 2.40284 12.0361 3.37898 11.2067 4.11312L10.6673 4.59071L10.6714 6.40001L10.6753 8.20931L11.4464 8.96535L12.2174 9.72123L14.1774 9.6693L16.1373 9.6172L16.6484 9.1063L17.1593 8.59523L17.2117 6.61667L17.2641 4.63811L16.7097 4.13017C16.1062 3.57718 15.8969 3.03264 16.0513 2.41739C16.3358 1.28372 17.8132 0.885129 18.6454 1.71735C19.3267 2.39862 19.2344 3.35348 18.4137 4.11687L17.8822 4.61136L17.8337 6.6733C17.7914 8.46617 17.743 8.7914 17.4625 9.16652C16.7346 10.14 16.4518 10.2386 14.221 10.2952L12.1649 10.3473L11.4201 11.0773L10.6753 11.8073L10.6714 13.6166L10.6673 15.4259L11.2067 15.9035C11.7944 16.4237 12.0081 16.9838 11.8536 17.5992C11.569 18.7329 10.0917 19.1314 9.25945 18.2992C8.57396 17.6137 8.67283 16.6376 9.50223 15.9035L10.0416 15.4259V13.6355V11.8451L9.29856 11.0872L8.5555 10.3291L6.20119 10.3252C4.57382 10.3224 3.78884 10.3792 3.65916 10.5089C3.52979 10.6382 3.47144 11.4306 3.47144 13.0612V15.4259L4.01082 15.9035C4.84022 16.6376 4.93909 17.6137 4.2536 18.2992C3.42138 19.1314 1.94403 18.7329 1.65948 17.5992C1.50492 16.9838 1.71861 16.4237 2.30633 15.9035L2.84571 15.4259V9.99092V4.55582L2.41552 4.21855C1.6163 3.59173 1.39604 2.79877 1.81262 2.04742C2.22279 1.30718 3.12416 1.06049 3.91805 1.47097Z" fill="#40AE2A"/>
</svg>
